<svg width="24" height="24" viewBox="0 0 24 24" fill="none" xmlns="http://www.w3.org/2000/svg">
<path d="M8 10H10L8.22222 10.2H10" stroke="#393939" stroke-width="0.1" stroke-linecap="round"/>
<path d="M16 10H14L15.7778 10.2H14" stroke="#393939" stroke-width="0.1" stroke-linecap="round"/>
<path d="M5 5H19" stroke="#393939" stroke-width="2" stroke-linecap="round"/>
<path d="M8 5L8.11111 5C9.03159 5 9.77778 4.25381 9.77778 3.33333C9.77778 3.14924 9.92702 3 10.1111 3L13.8889 3C14.073 3 14.2222 3.14924 14.2222 3.33333C14.2222 4.25381 14.9684 5 15.8889 5H16" stroke="#393939" stroke-width="2"/>
<path d="M18 9L17.2292 18.2491C17.0997 19.804 15.7999 21 14.2396 21H9.7604C8.20013 21 6.90033 19.804 6.77076 18.2491L6 9" stroke="#393939" stroke-width="2" stroke-linecap="round"/>
<path d="M10.0117 10.9719C10.033 11.1335 10.0241 11.2445 9.99536 11.3231C9.96741 11.3996 9.9192 11.4495 9.85151 11.487C9.78172 11.5256 9.69195 11.5506 9.58189 11.5751C9.55017 11.5822 9.51674 11.5892 9.48193 11.5966C9.39838 11.6141 9.30686 11.6333 9.2118 11.6588C8.95094 11.7287 8.70297 11.7384 8.51385 11.6997C8.32146 11.6603 8.2059 11.5752 8.17771 11.47C8.14951 11.3648 8.20706 11.2334 8.35399 11.1031C8.49842 10.975 8.71801 10.8594 8.97887 10.7895C9.24711 10.7176 9.49726 10.66 9.68674 10.675C9.78035 10.6824 9.85389 10.7072 9.90701 10.7521C9.95932 10.7963 9.99761 10.8649 10.0117 10.9719Z" fill="#D9D9D9" stroke="#393939" stroke-width="0.1"/>
<path d="M13.9883 10.9719C13.967 11.1335 13.9759 11.2445 14.0046 11.3231C14.0326 11.3996 14.0808 11.4495 14.1485 11.487C14.2183 11.5256 14.308 11.5506 14.4181 11.5751C14.4498 11.5822 14.4833 11.5892 14.5181 11.5966C14.6016 11.6141 14.6931 11.6333 14.7882 11.6588C15.0491 11.7287 15.297 11.7384 15.4861 11.6997C15.6785 11.6603 15.7941 11.5752 15.8223 11.47C15.8505 11.3648 15.7929 11.2334 15.646 11.1031C15.5016 10.975 15.282 10.8594 15.0211 10.7895C14.7529 10.7176 14.5027 10.66 14.3133 10.675C14.2197 10.6824 14.1461 10.7072 14.093 10.7521C14.0407 10.7963 14.0024 10.8649 13.9883 10.9719Z" fill="#D9D9D9" stroke="#393939" stroke-width="0.1"/>
<path d="M8 12.5L10 12" stroke="#393939" stroke-width="0.1" stroke-linecap="round"/>
<path d="M16 12.5L14 12" stroke="#393939" stroke-width="0.1" stroke-linecap="round"/>
<path d="M12 12L11.0788 14.3031C11.036 14.4099 11.0921 14.5307 11.2012 14.5671L12.107 14.869C12.3586 14.9529 12.6333 14.9334 12.8705 14.8148L13.1422 14.6789C13.2896 14.6052 13.2896 14.3948 13.1422 14.3211L12.5 14" stroke="#393939" stroke-width="0.1" stroke-linecap="round"/>
<path d="M10 15.5L9.77208 15.9558C9.72199 16.056 9.851 16.149 9.93019 16.0698V16.0698C9.96874 16.0313 10.0313 16.0313 10.0698 16.0698L10.3586 16.3586C10.4367 16.4367 10.5633 16.4367 10.6414 16.3586L10.8586 16.1414C10.9367 16.0633 11.0633 16.0633 11.1414 16.1414L11.429 16.429C11.464 16.464 11.5228 16.4544 11.5449 16.4102V16.4102C11.585 16.3299 11.7066 16.3803 11.6782 16.4655L11.5654 16.8038C11.5491 16.8526 11.6098 16.8902 11.6463 16.8537L12.3586 16.1414C12.4367 16.0633 12.5633 16.0633 12.6414 16.1414L12.8586 16.3586C12.9367 16.4367 13.0633 16.4367 13.1414 16.3586L13.3586 16.1414C13.4367 16.0633 13.5633 16.0633 13.6414 16.1414L13.6586 16.1586C13.7846 16.2846 14 16.1953 14 16.0172V15.5" stroke="#393939" stroke-width="0.1" stroke-linecap="round"/>
<path d="M10 18.5L10.8449 18.331C10.9473 18.3105 11.0527 18.3105 11.1551 18.331V18.331C11.717 18.4434 12.2886 18.5 12.8616 18.5H14M14 18.5L14.5 19M14 18.5V18.5C13.7014 18.2014 13.6274 17.7452 13.8162 17.3675L14 17" stroke="#393939" stroke-width="0.1" stroke-linecap="round"/>
</svg>
