<svg width="24" height="24" viewBox="0 0 24 24" fill="none" xmlns="http://www.w3.org/2000/svg">
<path d="M17.9227 3.52798C18.2607 3.18992 18.7193 3 19.1973 3C19.6754 3 20.134 3.18992 20.472 3.52798C20.8101 3.86605 21 4.32456 21 4.80265C21 5.28075 20.8101 5.73926 20.472 6.07732L12.3991 14.1502L9 15L9.84978 11.6009L17.9227 3.52798Z" stroke="#393939" stroke-width="2" stroke-linecap="round" stroke-linejoin="round"/>
<path d="M16 6L18 8" stroke="#393939" stroke-width="2" stroke-linecap="round" stroke-linejoin="round"/>
<path d="M12.5 4C13.0523 4 13.5 3.55228 13.5 3C13.5 2.44772 13.0523 2 12.5 2V4ZM22 11.5C22 10.9477 21.5523 10.5 21 10.5C20.4477 10.5 20 10.9477 20 11.5H22ZM12 4H12.5V2H12V4ZM20 11.5V12H22V11.5H20ZM12 20C7.58172 20 4 16.4183 4 12H2C2 17.5228 6.47715 22 12 22V20ZM12 22C17.5228 22 22 17.5228 22 12H20C20 16.4183 16.4183 20 12 20V22ZM4 12C4 7.58172 7.58172 4 12 4V2C6.47715 2 2 6.47715 2 12H4Z" fill="#393939"/>
</svg>
