<svg width="24" height="24" viewBox="0 0 24 24" fill="none" xmlns="http://www.w3.org/2000/svg">
<path d="M12 8L12 12" stroke="#393939" stroke-width="2" stroke-linecap="round" stroke-linejoin="round"/>
<path d="M12 12L14 14" stroke="#393939" stroke-width="2" stroke-linecap="round" stroke-linejoin="round"/>
<path d="M21 13V7C21 4.79086 19.2091 3 17 3H7C4.79086 3 3 4.79086 3 7V17C3 19.2091 4.79086 21 7 21H12.5" stroke="#393939" stroke-width="2" stroke-linecap="round"/>
<path d="M15.25 16.9167C15.25 15.9962 15.9962 15.25 16.9167 15.25H21.0833C22.0038 15.25 22.75 15.9962 22.75 16.9167V21.0833C22.75 22.0038 22.0038 22.75 21.0833 22.75H16.9167C15.9962 22.75 15.25 22.0038 15.25 21.0833V16.9167Z" stroke="#393939"/>
<path d="M17.3333 19H19M19 19H20.6666M19 19V17.3333M19 19L19 20.6667" stroke="#393939" stroke-linecap="round"/>
</svg>
