<svg width="512" height="512" viewBox="0 0 512 512" fill="none" xmlns="http://www.w3.org/2000/svg">
<rect width="512" height="512" fill="#FEFAFD"/>
<path d="M164 143.673C164 101.88 196.649 68 236.923 68H407.077C447.351 68 480 101.88 480 143.673V404.327C480 446.12 447.351 480 407.077 480H236.923C196.649 480 164 446.12 164 404.327V143.673Z" fill="#D6CCC2"/>
<path d="M190 444H104.923C64.6488 444 32 410.12 32 368.327V107.673C32 65.8802 64.6488 32 104.923 32H275.077C315.351 32 348 65.8802 348 107.673V238" stroke="#393939" stroke-width="12" stroke-linecap="round"/>
<path d="M92 112C92 107.582 95.9887 104 100.909 104H279.091C284.011 104 288 107.582 288 112V112C288 116.418 284.011 120 279.091 120H100.909C95.9887 120 92 116.418 92 112V112Z" fill="#393939"/>
<path d="M92 196C92 191.582 95.9887 188 100.909 188H279.091C284.011 188 288 191.582 288 196V196C288 200.418 284.011 204 279.091 204H100.909C95.9887 204 92 200.418 92 196V196Z" fill="#393939"/>
<path d="M92 280C92 275.582 93.9944 272 96.4545 272H185.545C188.006 272 190 275.582 190 280V280C190 284.418 188.006 288 185.545 288H96.4545C93.9944 288 92 284.418 92 280V280Z" fill="#393939"/>
<path d="M92 364C92 359.582 93.4653 356 95.2727 356H160.727C162.535 356 164 359.582 164 364C164 368.418 162.535 372 160.727 372H95.2727C93.4653 372 92 368.418 92 364Z" fill="#393939"/>
<path d="M336 256H272C245.49 256 224 277.49 224 304V404C224 430.51 245.49 452 272 452H372C398.51 452 420 430.51 420 404V403V342" stroke="#393939" stroke-width="12" stroke-linecap="round"/>
<rect x="366.51" y="285.77" width="36" height="12" transform="rotate(45 366.51 285.77)" fill="#393939"/>
<path d="M383.201 269.078L305.476 346.804C303.774 348.505 302.478 350.569 301.684 352.841L295.929 369.318L291.755 381.269C290.642 384.456 293.734 387.504 296.905 386.344L325.027 376.059C327.213 375.259 329.199 373.992 330.845 372.346L408.83 294.361C411.734 291.457 413.552 287.644 413.981 283.56C415.156 272.362 405.691 262.879 394.473 263.847C390.232 264.213 386.212 266.068 383.201 269.078Z" stroke="#393939" stroke-width="12"/>
</svg>
