<svg width="47" height="59" viewBox="0 0 47 59" fill="none" xmlns="http://www.w3.org/2000/svg">
<path d="M41.5 35V13.5C41.5 9.08172 38.0462 5.5 33.7857 5.5H13.2143C8.9538 5.5 5.5 9.08172 5.5 13.5V45.5C5.5 49.9183 8.9538 53.5 13.2143 53.5H23" stroke="#393939" stroke-width="2" stroke-linecap="round"/>
<path d="M20 21L28 29M28 21L20 29" stroke="#393939" stroke-width="3" stroke-linecap="round"/>
<path d="M44 46V52C44 54.2091 42.2091 56 40 56H30C27.7909 56 26 54.2091 26 52V42C26 39.7909 27.7909 38 30 38H36" stroke="#393939" stroke-width="2" stroke-linecap="round"/>
<path d="M40.9227 38.528C41.2607 38.1899 41.7193 38 42.1973 38C42.6754 38 43.134 38.1899 43.472 38.528C43.8101 38.866 44 39.3246 44 39.8027C44 40.2807 43.8101 40.7393 43.472 41.0773L35.3991 49.1502L32 50L32.8498 46.6009L40.9227 38.528Z" stroke="#393939" stroke-width="2" stroke-linecap="round" stroke-linejoin="round"/>
<path d="M39 41L41 43" stroke="#393939" stroke-width="2" stroke-linecap="round" stroke-linejoin="round"/>
</svg>
