<svg width="24" height="24" viewBox="0 0 24 24" fill="none" xmlns="http://www.w3.org/2000/svg">
<path d="M11.0006 3.59012C11.4539 2.80329 12.5461 2.80329 12.9994 3.59012L15.2007 7.41065C15.3635 7.69332 15.6292 7.89492 15.9369 7.96936L20.0959 8.97544C20.9524 9.18265 21.2899 10.2675 20.7135 10.961L17.915 14.3283C17.708 14.5775 17.6065 14.9037 17.6338 15.2323L18.0029 19.6747C18.0789 20.5896 17.1954 21.2601 16.3858 20.9018L12.455 19.1624C12.1642 19.0337 11.8358 19.0337 11.545 19.1624L7.61415 20.9018C6.80461 21.2601 5.92106 20.5896 5.99707 19.6747L6.36618 15.2323C6.39349 14.9037 6.29202 14.5775 6.08497 14.3283L3.28647 10.961C2.71013 10.2675 3.04761 9.18265 3.90414 8.97544L8.0631 7.96936C8.37081 7.89492 8.63646 7.69332 8.79932 7.41065L11.0006 3.59012Z" stroke="#393939" stroke-width="2"/>
</svg>
