<svg width="24" height="24" viewBox="0 0 24 24" fill="none" xmlns="http://www.w3.org/2000/svg">
<mask id="mask0_32_8" style="mask-type:alpha" maskUnits="userSpaceOnUse" x="0" y="0" width="24" height="24">
<rect width="24" height="24" fill="#D9D9D9"/>
</mask>
<g mask="url(#mask0_32_8)">
<path d="M8.65 20H6C5.45 20 4.97933 19.8043 4.588 19.413C4.196 19.021 4 18.55 4 18V15.35L2.075 13.4C1.69167 13.0167 1.5 12.55 1.5 12C1.5 11.45 1.69167 10.9833 2.075 10.6L4 8.65V6C4 5.45 4.196 4.97933 4.588 4.588C4.97933 4.196 5.45 4 6 4H8.65L10.6 2.075C10.9833 1.69167 11.45 1.5 12 1.5C12.55 1.5 13.0167 1.69167 13.4 2.075L15.35 4H18C18.55 4 19.021 4.196 19.413 4.588C19.8043 4.97933 20 5.45 20 6V8.65L21.925 10.6C22.3083 10.9833 22.5 11.45 22.5 12C22.5 12.55 22.3083 13.0167 21.925 13.4L20 15.35V18C20 18.55 19.8043 19.021 19.413 19.413C19.021 19.8043 18.55 20 18 20H15.35L13.4 21.925C13.0167 22.3083 12.55 22.5 12 22.5C11.45 22.5 10.9833 22.3083 10.6 21.925L8.65 20ZM12 17C13.3833 17 14.5627 16.5123 15.538 15.537C16.5127 14.5623 17 13.3833 17 12C17 10.6167 16.5127 9.43733 15.538 8.462C14.5627 7.48733 13.3833 7 12 7V17ZM12 20.5L14.5 18H18V14.5L20.5 12L18 9.5V6H14.5L12 3.5L9.5 6H6V9.5L3.5 12L6 14.5V18H9.5L12 20.5Z" fill="#393939"/>
</g>
</svg>
