<svg width="24" height="24" viewBox="0 0 24 24" fill="none" xmlns="http://www.w3.org/2000/svg">
<mask id="mask0_42_50" style="mask-type:alpha" maskUnits="userSpaceOnUse" x="0" y="0" width="24" height="24">
<rect width="24" height="24" fill="#D9D9D9"/>
</mask>
<g mask="url(#mask0_42_50)">
<path d="M7.99999 19C7.71665 19 7.47899 18.904 7.28699 18.712C7.09565 18.5207 6.99999 18.2833 6.99999 18C6.99999 17.7167 7.09565 17.4793 7.28699 17.288C7.47899 17.096 7.71665 17 7.99999 17H14.1C15.15 17 16.0623 16.6667 16.837 16C17.6123 15.3333 18 14.5 18 13.5C18 12.5 17.6123 11.6667 16.837 11C16.0623 10.3333 15.15 9.99999 14.1 9.99999H7.79999L9.69999 11.9C9.88332 12.0833 9.97499 12.3167 9.97499 12.6C9.97499 12.8833 9.88332 13.1167 9.69999 13.3C9.51665 13.4833 9.28332 13.575 8.99999 13.575C8.71665 13.575 8.48332 13.4833 8.29999 13.3L4.69999 9.69999C4.59999 9.59999 4.52899 9.49165 4.48699 9.37499C4.44565 9.25832 4.42499 9.13332 4.42499 8.99999C4.42499 8.86665 4.44565 8.74165 4.48699 8.62499C4.52899 8.50832 4.59999 8.39999 4.69999 8.29999L8.29999 4.69999C8.48332 4.51665 8.71665 4.42499 8.99999 4.42499C9.28332 4.42499 9.51665 4.51665 9.69999 4.69999C9.88332 4.88332 9.97499 5.11665 9.97499 5.39999C9.97499 5.68332 9.88332 5.91665 9.69999 6.09999L7.79999 7.99999H14.1C15.7167 7.99999 17.1043 8.52499 18.263 9.57499C19.421 10.625 20 11.9333 20 13.5C20 15.0667 19.421 16.375 18.263 17.425C17.1043 18.475 15.7167 19 14.1 19H7.99999Z" fill="#393939"/>
</g>
</svg>
