<svg width="24" height="24" viewBox="0 0 24 24" fill="none" xmlns="http://www.w3.org/2000/svg">
<path d="M11.1432 4.42373C11.5319 3.77791 12.4682 3.77791 12.8568 4.42373L14.744 7.55957C14.8836 7.79158 15.1114 7.95705 15.3752 8.01815L18.9407 8.84393C19.675 9.014 19.9644 9.90447 19.4703 10.4737L17.0711 13.2375C16.8935 13.442 16.8066 13.7097 16.83 13.9795L17.1464 17.6257C17.2116 18.3767 16.4541 18.927 15.7601 18.633L12.3901 17.2053C12.1408 17.0996 11.8593 17.0996 11.6099 17.2053L8.23996 18.633C7.54592 18.927 6.78845 18.3767 6.85362 17.6257L7.17006 13.9795C7.19347 13.7097 7.10648 13.442 6.92897 13.2375L4.52978 10.4737C4.03567 9.90447 4.325 9.014 5.05931 8.84393L8.62485 8.01815C8.88865 7.95705 9.1164 7.79158 9.25603 7.55957L11.1432 4.42373Z" stroke="#393939" stroke-width="2"/>
</svg>
